Patient4_TMGait_0pt2_02_left_17_EMG.mot
version=1
nRows=13
nColumns=33
inDegrees=no
endheader
time	1LAddLong	2LGlutMax	3LGlutMed	4LIliopsoas	5LSemiMemb	6LBicFemLong	7LRecFem	8LVastMed	9LVastLat	10LGasMed	11LTibAnt	12lTibPost	13LPeroneusLong	14LSol	15LExtDigLong	16LFlexDigLong	17RAddLong	18RGlutMax	19RGlutMed	20RIliopsoas	21RSemiMemb	22RBicFemLong	23RRecFem	24RVastMed	25RVastLat	26RGasMed	27RTibAnt	28RTibPost	29RPeroneusLong	30RSol	31RExtDigLong	32RFlexDigLong
41.09	0.009766	0.17487	0.011749	-0.025482	0.005035	-0.001831	-0.052948	0.01297	-0.18173	0.039673	0.090637	0.029297	0.014343	0.063477	-0.36957	0.000763	-0.026245	-0.32471	-0.69015	0.05127	-0.47928	-0.025177	-0.030212	-1.1671	0.098724	-0.009308	0.035553	-0.11139	-0.17303	0.17517	-0.007477	-0.007324
41.091	-0.003052	0.18295	-0.062256	-0.009766	0.008545	0.013428	-0.11124	0.009613	-0.19257	0.017853	0.059662	0.023804	0.021057	0.063782	-0.27374	-0.007782	-0.014343	-0.32333	-0.7785	-0.092621	-0.41901	0.026855	0.27023	-1.1295	0.13687	0.008087	-0.023651	-0.006866	0.052948	0.1178	-0.007935	-0.004272
41.092	0.002289	0.19302	-0.00946	-0.025024	-0.000305	0.002594	-0.16205	0.049896	-0.069427	0.027466	0.028687	0.02533	0.046082	0.103	-0.24017	-0.018005	-0.041809	-0.24124	-1.1354	-0.083466	0.21668	0.11353	0.053253	-0.85907	0.11261	0.017548	-0.12741	0.10605	0.36636	0.098572	-0.006104	-0.004578
41.093	-0.005035	0.22263	0.011139	-0.007935	0.006409	0.013885	-0.1648	0.013733	0.044556	0.041962	0.018463	0.021057	0.067749	-0.006866	-0.31479	-0.015564	-0.075989	-0.20035	0.98145	-0.056458	0.24353	0.038452	-0.088043	-0.47379	0.12268	0.001373	-0.050812	0.079498	-0.19272	0.12863	-0.005188	0.002136
41.094	0.00412	0.21286	0.040283	0.01236	0.003357	0.010376	-0.19119	0.005646	0.075531	0.035553	0.031891	0.023499	0.03067	-0.10315	-0.12421	-0.02243	-0.036774	-0.16037	2.1938	-0.083923	0.000153	-0.087128	0.002289	-0.084686	0.11459	-0.019836	0.066986	0.030518	-0.23804	0.2536	-0.014343	-0.00061
41.095	0.003967	0.18951	0.0383	0.011292	0.000305	0.015717	-0.14648	-0.000153	0.07019	0.02655	0.046082	0.028992	0.014496	-0.0354	0.061798	-0.012665	-0.00412	-0.29404	0.94894	-0.17624	-0.036469	-0.11459	0.14008	-0.005646	0.14771	-0.002441	0.079651	-0.008392	-0.14862	0.34775	-0.007629	0.003815
41.096	0.002899	0.16937	0.018311	0.005798	0.01297	0.009308	-0.080566	-0.000458	0.037842	0.022278	0.036163	0.024872	0.025482	0.023499	0.086975	-0.008087	0.000153	-0.24567	0.1564	-0.2121	-0.000153	-0.065613	0.16174	-0.23483	0.11414	0.008087	0.092316	-0.025024	0.20874	0.2832	-0.008698	-0.000305
41.097	0.008087	0.13809	0.008392	0.019989	0.001526	-0.006409	-0.066223	0.008545	-0.003052	0.016479	0.03006	0.026245	0.042267	0.014343	0.18402	-0.014954	0.002289	-0.13092	0.1506	-0.12497	0.043945	0.04837	0.16113	-0.40359	0.057068	0.009613	0.072174	-0.038757	0.099487	0.32425	-0.007782	0.000458
41.098	0.004425	0.11871	-0.021057	0.03006	0.012512	0.01358	-0.061188	0.004883	-0.008087	0.016174	0.01709	0.030518	0.064697	-0.010376	0.19379	0.008087	0.017853	-0.004425	0.066223	0.11826	0.014954	0.11475	0.02121	-0.33875	0.050201	-0.008545	0.033875	-0.051727	0.12558	0.31265	-0.007629	-0.001221
41.099	0.010986	0.13763	0.002289	0.016632	0.00946	0.009766	-0.057068	0.003204	0.006866	0.027161	0.031433	0.028381	0.065155	-0.037231	0.15488	-0.01297	0.024261	0.007172	0.095978	0.29755	0.031738	0.11459	0.007629	-0.2626	0.04303	-0.018311	0.019531	-0.04364	-0.043793	0.29465	-0.007629	-0.003662
41.1	0.002289	0.098572	-0.003357	0.02121	0.005493	-0.007935	-0.05722	-0.002136	0.013428	0.016174	0.024414	0.011597	0.04837	0.011139	0.009308	-0.013123	0.049744	-0.050812	0.63202	0.15289	0.016785	0.062561	0.24033	-0.16144	0.004272	0.001984	0.097351	-0.021057	0.78369	0.10544	-0.004272	-0.003204
41.101	0.000305	0.066376	-0.019989	-0.006256	0.00946	-0.022736	-0.10147	-0.00351	0.007629	0.010529	0.012512	0.023956	0.041351	0.037689	-0.068665	-0.014343	-0.007935	0.046692	0.32944	0.017242	-0.12497	0.10117	0.27451	-0.21011	0.022736	-0.00061	0.14481	-0.010834	-0.52795	-0.14206	-0.007477	-0.004578
41.102	0.004425	0.027008	-0.02182	-0.011292	0.009155	-0.01236	-0.083008	0.003357	0.022125	0.011292	0.02243	0.028687	0.04776	0.067139	-0.07843	-0.011902	-0.006866	0.016022	0.60745	0.004883	-0.2739	0.10925	0.32776	0.010223	0.041504	-0.005798	0.021667	-0.020142	-1.006	-0.18875	-0.007935	-0.001678
